HIERARCHY
ROOT Hips
{
  OFFSET -35.4901 99.2528 17.4586
  CHANNELS 6 Xposition Yposition Zposition Zrotation Xrotation Yrotation
  JOINT LeftUpLeg
  {
    OFFSET 8.64259 1.95398 -2.38835
    CHANNELS 3 Zrotation Xrotation Yrotation
    JOINT LeftLeg
    {
      OFFSET 43.7702 0 0
      CHANNELS 3 Zrotation Xrotation Yrotation
      JOINT LeftFoot
      {
        OFFSET 40.6238 0 0
        CHANNELS 3 Zrotation Xrotation Yrotation
        JOINT LeftToeBase
        {
          OFFSET 12.7242 0 0
          CHANNELS 3 Zrotation Xrotation Yrotation
          End Site
          {
            OFFSET 0 0 0
          }
        }
      }
    }
  }
  JOINT RightUpLeg
  {
    OFFSET -8.2249 1.95398 -2.59336
    CHANNELS 3 Zrotation Xrotation Yrotation
    JOINT RightLeg
    {
      OFFSET 43.5653 0 0
      CHANNELS 3 Zrotation Xrotation Yrotation
      JOINT RightFoot
      {
        OFFSET 40.6238 0 0
        CHANNELS 3 Zrotation Xrotation Yrotation
        JOINT RightToeBase
        {
          OFFSET 12.7242 0 0
          CHANNELS 3 Zrotation Xrotation Yrotation
          End Site
          {
            OFFSET 0 0 0
          }
        }
      }
    }
  }
  JOINT Spine
  {
    OFFSET 0.165834 0.87714 6.61349
    CHANNELS 3 Zrotation Xrotation Yrotation
    JOINT Spine1
    {
      OFFSET 7.38963 1.71661e-005 0
      CHANNELS 3 Zrotation Xrotation Yrotation
      JOINT Spine2
      {
        OFFSET 11.9445 1.14441e-005 0
        CHANNELS 3 Zrotation Xrotation Yrotation
        JOINT Spine3
        {
          OFFSET 14.7254 4.19617e-005 0
          CHANNELS 3 Zrotation Xrotation Yrotation
          JOINT Spine4
          {
            OFFSET 10.9679 0 0
            CHANNELS 3 Zrotation Xrotation Yrotation
            JOINT RightShoulder
            {
              OFFSET 2.46616 -1.6653 3.69651
              CHANNELS 3 Zrotation Xrotation Yrotation
              JOINT RightArm
              {
                OFFSET 13.0012 0 0
                CHANNELS 3 Zrotation Xrotation Yrotation
                JOINT RightForeArm
                {
                  OFFSET 28.7848 1.52588e-005 0
                  CHANNELS 3 Zrotation Xrotation Yrotation
                  JOINT RightHand
                  {
                    OFFSET 26.5688 1.52588e-005 0
                    CHANNELS 3 Zrotation Xrotation Yrotation
                    End Site
                    {
                      OFFSET 0 0 0
                    }
                  }
                }
              }
            }
            JOINT LeftShoulder
            {
              OFFSET 2.38034 -1.29275 -3.7523
              CHANNELS 3 Zrotation Xrotation Yrotation
              JOINT LeftArm
              {
                OFFSET 16.3182 6.10351e-005 0
                CHANNELS 3 Zrotation Xrotation Yrotation
                JOINT LeftForeArm
                {
                  OFFSET 27.0901 0 0
                  CHANNELS 3 Zrotation Xrotation Yrotation
                  JOINT LeftHand
                  {
                    OFFSET 24.5451 1.52588e-005 0
                    CHANNELS 3 Zrotation Xrotation Yrotation
                    End Site
                    {
                      OFFSET 0 0 0
                    }
                  }
                }
              }
            }
            JOINT Neck
            {
              OFFSET 5.0226 -0.0266342 0
              CHANNELS 3 Zrotation Xrotation Yrotation
              JOINT Head
              {
                OFFSET 6.69364 2.86102e-005 0
                CHANNELS 3 Zrotation Xrotation Yrotation
                End Site
                {
                  OFFSET 0 0 0
                }
              }
            }
          }
        }
      }
    }
  }
}
MOTION
Frames:	17
Frame Time:	0.0416667
33.1868 66.7888 9.87038 -5.96416 -69.5255 -6.48826 -75.3321 69.8034 35.3615 -100.04 29.5928 -6.80151 88.6735 12.1313 -1.98825 3.66365 3.64207 -2.1438 92.6993 61.9076 137.19 -99.4412 -20.3874 5.43131 103.11 -20.8125 -0.162896 14.1696 -6.19142 13.4494 0.654059 10.3309 -90.7392 6.21621 0.994477 -1.48704 -5.45526 0.928079 -1.52936 -27.9892 1.39539 -1.11946 -7.97651 1.39539 -1.11945 87.1994 -21.5771 -116.682 5.05146 -9.9296 -55.5144 11.7041 -48.579 -1.42879 -26.7464 -4.17564 10.6277 -90.3573 -31.7521 73.2378 -6.0036 10.9627 -81.4498 -2.20246 51.7001 -1.77727 -0.479906 0.134002 9.03123 8.9204 0.349497 -2.53814 -9.22206 0.544336 5.51151 
33.6776 61.6899 9.24502 -7.53692 -70.744 -7.90439 -56.8855 67.9119 17.1374 -111.292 25.7963 -0.503313 91.1576 13.0028 -3.35806 3.4071 3.74323 -2.23553 81.4258 62.1546 147.69 -108.914 -18.786 2.00967 106.285 -22.2447 0.508511 13.7622 -6.10122 13.2109 0.655565 10.6836 -90.7311 5.5107 1.00556 -1.46009 -6.16074 0.940343 -1.50292 -28.6949 1.39786 -1.09041 -8.68227 1.39787 -1.09042 87.4387 -20.8523 -116.591 4.6927 -8.8666 -55.9654 11.6357 -48.7537 -1.32898 -27.6582 -4.43868 11.1977 -90.7361 -32.3416 72.7378 -5.45411 9.74091 -81.434 -2.34037 52.7359 -1.53978 1.91141 0.462957 10.4155 8.63798 0.355087 -1.78856 -8.47738 0.480657 4.42657 
34.2671 56.6371 8.80445 -9.95233 -72.7881 -10.629 -45.8429 64.6548 6.2646 -120.895 21.3515 4.2837 93.683 13.92 -4.3318 3.59934 3.28814 -1.77519 72.7448 62.3334 155.614 -117.481 -17.3714 -0.857862 110.33 -24.1986 0.842791 12.5451 -5.95935 12.7557 0.652826 10.9889 -90.6159 4.89988 1.05132 -1.22453 -6.77126 0.996407 -1.26963 -29.3073 1.37072 -0.851968 -9.29461 1.37072 -0.851972 86.992 -20.8129 -117.607 5.01801 -8.06224 -55.286 11.1333 -48.2156 -1.07634 -28.8215 -4.10377 8.70821 -90.7729 -32.1513 72.6047 -5.66009 9.24465 -80.6834 -2.38409 53.1551 -0.924695 -0.00466496 0.187798 9.03659 7.72669 0.43182 -2.02757 -8.31126 0.599198 4.40683 
34.9102 51.5253 8.51162 -13.4994 -75.176 -14.1952 -38.3567 61.0786 -0.800506 -129.366 17.18 7.80315 96.6666 14.807 -5.08512 4.69163 2.47191 -1.01531 68.5178 62.132 159.477 -124.368 -13.3697 -2.7941 119.389 -26.3541 5.21026 9.99927 -5.60986 11.7744 0.70571 11.2725 -90.5934 4.33319 1.16909 -1.17199 -7.33781 1.11637 -1.22232 -29.8751 1.46725 -0.766447 -9.86243 1.46725 -0.766442 87.0483 -20.7701 -117.508 4.4578 -8.26562 -55.0852 11.1005 -47.789 -2.2263 -28.0151 -3.88193 8.2155 -90.8659 -33.6896 72.9556 -5.46162 9.28634 -80.6101 -2.79243 52.8586 -0.834936 1.62396 0.395033 9.49896 7.46144 0.296789 -1.1638 -8.28829 0.345987 3.32416 
35.3826 46.4864 8.32495 -18.907 -77.9129 -19.6585 -31.6459 56.9121 -7.08435 -136.798 11.956 10.2937 97.8599 15.2958 -4.98601 1.84151 3.81061 -2.12423 63.6428 61.9451 164.363 -130.73 -8.1504 -4.13282 126.394 -27.2964 9.02325 8.99683 -5.1094 10.7899 0.768335 11.5304 -90.5286 3.81752 1.32276 -1.03642 -7.85321 1.27588 -1.09363 -30.3924 1.57308 -0.59091 -10.3798 1.57308 -0.590903 86.8896 -21.5005 -117.408 3.62018 -8.98392 -55.4705 11.7277 -48.7817 -1.35406 -28.3834 -4.2181 9.5399 -90.8216 -33.628 73.014 -5.66706 9.96423 -80.1951 -3.15123 53.6653 -0.780742 2.31331 0.497693 9.95398 7.44398 0.145768 -1.91079 -8.32004 0.326345 3.72852 
35.5641 42.1528 7.95044 -25.8743 -80.8593 -26.5972 -27.2007 53.6186 -12.5578 -142.153 5.42153 11.4679 99.4191 15.4269 -6.10457 2.8496 2.16769 -0.506899 59.5851 61.3392 169.595 -136.363 -0.863066 -4.95533 130.331 -27.2482 11.2319 8.58728 -4.16423 9.13726 0.801239 11.7632 -90.5062 3.35193 1.39938 -0.983177 -8.31868 1.35475 -1.04383 -30.8588 1.63015 -0.517084 -10.8462 1.63016 -0.517088 86.8438 -21.2589 -117.657 4.18004 -9.42879 -55.146 11.403 -49.3576 -1.95511 -31.8519 -5.11227 11.0273 -90.7424 -33.5189 73.1211 -7.29603 11.1204 -79.8405 -3.49495 55.2067 -0.0442257 6.07982 1.0372 10.8194 7.08683 0.00242115 -2.0704 -8.11781 0.241966 3.29646 
35.5747 38.6053 7.84793 -36.4074 -84.2229 -37.0075 -25.0332 51.0559 -16.6951 -146.182 0.701146 12.0096 97.8959 14.8867 -5.211 5.08824 0.16607 1.46839 58.016 61.4835 172.515 -140.821 5.77485 -5.21095 132.453 -26.8171 12.0843 9.46351 -3.23534 7.58736 0.809597 12.0729 -90.5502 2.73265 1.40119 -1.05655 -8.93801 1.35334 -1.11719 -31.4779 1.65393 -0.586525 -11.4653 1.65393 -0.58652 87.3464 -20.0127 -117.316 6.45957 -9.55612 -55.4057 11.7071 -50.5305 -1.56087 -33.0694 -6.03138 13.8358 -90.4899 -33.5549 73.5904 -7.89023 12.4245 -80.1712 -3.7783 53.8186 -0.00956659 8.71495 1.65947 13.5149 6.66645 -0.254001 -1.62109 -7.06252 -0.0561091 2.84332 
35.5439 36.6437 7.93232 -62.9741 -86.5648 -63.9648 -24.5134 50.5143 -17.9319 -148.292 -1.72632 12.0507 96.8395 14.4981 -4.52135 6.31418 -0.388042 2.07543 58.2725 63.1312 173.274 -143.737 8.25766 -5.04311 132.356 -26.8294 11.1284 10.542 -2.84147 6.93567 0.863414 12.4341 -90.5616 2.01061 1.50712 -1.06168 -9.65995 1.45894 -1.12699 -32.2009 1.7565 -0.559567 -12.1882 1.75651 -0.559561 88.1383 -19.2399 -115.997 7.2981 -10.1738 -56.3529 12.1807 -45.4093 -0.730068 -34.2832 -6.26256 14.2267 -90.4944 -33.3948 73.5303 -7.79684 13.4284 -80.7052 -3.84014 52.712 -0.00905765 7.07837 1.19004 11.0388 6.8077 -0.425515 -0.813651 -4.8125 -0.312024 2.27176 
35.4703 36.354 7.74786 -74.5829 -87.013 -75.7187 -24.9474 50.4958 -18.0259 -148.15 -2.33403 12.024 97.7823 15.1848 -3.71955 1.31471 2.9084 -1.16002 57.8236 63.6905 174.447 -144.098 9.16728 -4.95026 131.248 -26.4332 10.617 11.2504 -2.63096 6.57424 0.83747 12.6854 -90.4999 1.50716 1.48085 -0.931345 -10.1633 1.43843 -0.99564 -32.7044 1.69228 -0.44315 -12.6918 1.69229 -0.443157 88.5782 -18.5219 -115.421 7.57177 -9.25368 -57.7969 11.6432 -45.6481 -1.02689 -34.3754 -6.26058 14.0767 -90.3773 -33.617 73.8147 -8.14184 13.253 -81.3751 -3.62665 52.4636 -0.0082121 6.84636 1.25886 11.9882 9.34055 -0.440843 -0.930784 -3.74633 -0.261004 2.22697 
35.5092 37.3672 7.08821 -55.6883 -86.1552 -56.6535 -25.1138 50.1841 -17.9315 -146.556 -1.50055 11.9642 96.9992 15.02 -3.48974 2.77938 2.36524 -0.712314 56.7837 62.4942 176.265 -142.383 8.22585 -5.05434 129.292 -26.6772 9.26501 10.7981 -2.75873 6.79296 0.787408 12.7407 -90.3833 1.39554 1.42571 -0.703492 -10.2748 1.39337 -0.765579 -32.816 1.57122 -0.242396 -12.8034 1.57122 -0.242395 88.4804 -18.7063 -115.535 5.02522 -8.64869 -58.9064 9.47486 -45.1101 -3.00272 -35.4203 -6.08249 12.816 -90.401 -33.1253 73.6116 -8.61062 12.3406 -81.0478 -3.11149 51.5503 -0.00736812 8.20163 1.6096 13.8456 14.336 -0.29686 -1.39495 -3.26164 0.0612371 2.15839 
35.5985 38.5336 6.36014 -40.7677 -84.6772 -41.6734 -25.6945 49.3295 -17.2982 -144.72 -0.719182 11.902 97.2767 15.385 -3.14951 1.99344 1.46074 0.294728 54.8911 60.8933 177.995 -140.305 6.7981 -5.20915 127.941 -26.5142 9.08305 9.89272 -3.37775 7.85454 0.718192 12.7229 -90.3419 1.43044 1.30326 -0.627131 -10.2401 1.27441 -0.683881 -32.7802 1.43148 -0.206388 -12.7676 1.43148 -0.206379 88.1471 -18.6767 -116.327 1.41416 -8.32674 -59.6212 10.0206 -40.8157 -4.03537 -35.5798 -5.73959 11.807 -90.7038 -32.9904 73.0158 -7.40507 11.0715 -80.8698 -3.0523 51.1461 -0.00725752 10.4978 1.76393 11.9614 20.6235 0.347078 -0.0852238 -3.6925 0.338752 1.53804 
35.7244 39.168 5.97534 -32.8568 -83.3778 -33.9004 -26.2822 48.2864 -16.6481 -143.208 -1.9405 11.7466 98.0238 15.1919 -4.59652 -1.23904 3.34794 -1.31904 52.8488 60.1008 179.689 -139.32 4.9035 -5.23045 127.006 -26.4383 8.8285 9.1926 -3.48269 8.00304 0.744182 12.6314 -90.3062 1.61336 1.36843 -0.55898 -10.057 1.3425 -0.618682 -32.5979 1.47315 -0.121792 -12.5852 1.47314 -0.121798 87.9771 -19.5773 -116.156 2.59105 -7.00032 -59.8307 8.25987 -44.1544 -3.90535 -34.3204 -5.51414 11.4849 -90.8475 -32.6187 72.6275 -8.16999 10.6875 -81.2251 -2.56305 72.1371 -4.56608 18.5459 6.86282 31.287 25.0866 0.163493 0.399537 -4.15541 -0.000505402 0.80044 
35.7368 39.0792 5.85715 -33.0993 -83.4483 -34.1393 -26.2295 48.01 -16.8563 -143.204 -2.30149 11.751 97.7522 15.1133 -4.56726 -0.833352 3.03575 -1.04804 52.6578 59.9466 179.688 -139.404 4.55156 -5.26301 127.212 -26.4523 8.88494 8.48903 -3.39039 7.81091 0.755767 12.6091 -90.3231 1.65804 1.38499 -0.592471 -10.0123 1.35758 -0.652869 -32.5533 1.49901 -0.148754 -12.5406 1.49901 -0.148751 87.8872 -19.5545 -116.376 1.34226 -7.36991 -59.4838 9.04709 -42.9399 -4.24338 -32.7815 -5.28498 11.6856 -91.1778 -32.4645 71.97 -8.99353 10.5182 -80.2022 150.548 79.6899 -163.653 19.9006 10.5151 46.7575 26.9878 -0.110542 0.417018 -3.86001 -0.279217 1.16959 
35.6186 38.2439 6.06386 -43.414 -84.6566 -44.5884 -25.8665 48.5951 -17.1388 -144.084 -3.9565 11.7839 97.974 14.8851 -5.33784 -0.656655 2.96177 -0.997249 53.9144 60.691 178.859 -140.607 5.97819 -5.22941 128.285 -26.4965 9.21271 8.1908 -3.07083 7.25816 0.775624 12.6586 -90.3291 1.55902 1.42251 -0.601146 -10.1113 1.39467 -0.663187 -32.6526 1.5374 -0.145748 -12.64 1.5374 -0.145749 88.1749 -19.164 -115.959 3.65357 -7.91978 -58.79 6.78738 -44.4253 -5.42477 -32.5433 -5.24845 11.5988 -91.1921 -33.2809 72.2256 -8.43287 11.1544 -79.8059 154.018 74.1544 -169.443 16.9606 9.82685 49.6113 27.2014 -0.205261 1.49055 -3.41985 -0.755876 0.142853 
35.492 36.9828 6.42648 -64.05 -86.1193 -65.4558 -25.6411 48.9027 -17.6772 -146.105 -3.71094 11.9521 97.3315 15.164 -3.52984 2.27251 1.31936 0.420588 55.3987 61.7102 178.045 -142.445 9.28874 -5.16809 129.92 -26.1631 10.0871 8.42274 -2.45241 6.21436 0.764725 12.7272 -90.3624 1.42232 1.38836 -0.664341 -10.2481 1.35778 -0.724802 -32.789 1.52382 -0.21627 -12.7763 1.52382 -0.216287 88.7151 -18.3312 -115.219 6.05558 -8.72296 -58.7607 7.19465 -44.9268 -4.74656 -31.8585 -5.05383 11.2309 -91.1381 -33.6476 72.4489 -8.84773 11.9262 -79.8776 158.055 75.8753 -173.493 17.4241 9.85206 48.615 26.2167 -0.437603 2.92939 -2.74866 -1.48164 -0.89825 
35.3886 35.8546 6.82663 -103.018 -86.6953 -104.754 -25.7793 49.5269 -17.5516 -147.78 -3.88469 12.0384 96.8422 15.2612 -2.37748 2.75005 1.67408 0.0128908 57.7297 63.2692 176.112 -144.371 10.6601 -4.9888 130.853 -26.6401 9.5384 8.84241 -1.9461 5.35014 0.716286 12.7686 -90.3113 1.33877 1.31127 -0.565613 -10.3316 1.28511 -0.62279 -32.872 1.42063 -0.1453 -12.8594 1.42063 -0.145305 87.9347 -19.4908 -116.307 6.13138 -9.31525 -57.4034 8.29193 -45.1944 -4.72392 -32.8306 -5.13307 10.8907 -91.3747 -34.0927 72.1743 -8.66922 12.5609 -78.7448 156.863 81.7663 -170.538 18.3604 9.22438 43.66 24.204 -0.688193 2.64337 -1.55555 -1.57818 -0.450508 
35.1646 35.3842 6.96177 -122.695 -86.6736 -124.618 -25.3258 50.2213 -18.1297 -148.298 -4.11372 11.9426 96.3156 14.7758 -2.99742 2.63304 1.25206 0.464236 59.198 63.8442 174.996 -145.059 12.3393 -4.91467 131.366 -26.3444 9.73335 10.0422 -1.51026 4.58658 0.694194 12.7814 -90.3381 1.31337 1.25704 -0.619051 -10.3571 1.22858 -0.673796 -32.897 1.38496 -0.212584 -12.8843 1.38497 -0.212583 88.2184 -19.4974 -115.655 7.344 -9.74194 -57.5423 7.41958 -46.244 -4.50569 -29.6335 -4.29248 9.19009 -91.6922 -34.4263 71.7208 -8.4548 12.8179 -78.2623 10.3349 86.3955 -20.9337 19.842 8.23816 36.4617 24.3287 -0.764655 2.80363 -1.52923 -1.71115 -0.671736 
